<svg width="20" height="20" viewBox="0 0 20 20" fill="none" xmlns="http://www.w3.org/2000/svg">
<g id="calendar-2-line">
<path id="Vector" d="M7.75 1.66663V3.16663H12.25V1.66663H13.75V3.16663H16.75C17.1642 3.16663 17.5 3.50242 17.5 3.91663V15.9166C17.5 16.3308 17.1642 16.6666 16.75 16.6666H3.25C2.83579 16.6666 2.5 16.3308 2.5 15.9166V3.91663C2.5 3.50242 2.83579 3.16663 3.25 3.16663H6.25V1.66663H7.75ZM16 9.16663H4V15.1666H16V9.16663ZM7 10.6666V12.1666H5.5V10.6666H7ZM10.75 10.6666V12.1666H9.25V10.6666H10.75ZM14.5 10.6666V12.1666H13V10.6666H14.5ZM6.25 4.66663H4V7.66663H16V4.66663H13.75V6.16663H12.25V4.66663H7.75V6.16663H6.25V4.66663Z" fill="#636366"/>
</g>
</svg>
