<svg width="20" height="20" viewBox="0 0 20 20" fill="none" xmlns="http://www.w3.org/2000/svg">
<g id="link-m">
<path id="Vector" d="M14.7143 12.3571L13.5357 11.1786L14.7143 10.0001C16.016 8.69833 16.016 6.58779 14.7143 5.28604C13.4125 3.98429 11.302 3.98429 10.0002 5.28604L8.82171 6.46455L7.64319 5.28604L8.82171 4.10753C10.7743 2.15491 13.9401 2.15491 15.8928 4.10753C17.8454 6.06015 17.8454 9.22599 15.8928 11.1786L14.7143 12.3571ZM12.3572 14.7142L11.1787 15.8927C9.22613 17.8452 6.06028 17.8452 4.10765 15.8927C2.15503 13.94 2.15503 10.7742 4.10765 8.82158L5.28617 7.64307L6.46468 8.82158L5.28617 10.0001C3.98442 11.3018 3.98442 13.4124 5.28617 14.7142C6.58792 16.0159 8.69846 16.0159 10.0002 14.7142L11.1787 13.5357L12.3572 14.7142ZM12.3572 6.46455L13.5357 7.64307L7.64319 13.5357L6.46468 12.3571L12.3572 6.46455Z" fill="#636366"/>
</g>
</svg>
