<svg width="26" height="26" viewBox="0 0 26 26" fill="none" xmlns="http://www.w3.org/2000/svg">
<path d="M4.33333 12.9999L13 4.33325L21.6667 12.9999M6.5 11.3749V20.5833C6.5 20.8706 6.61414 21.1461 6.8173 21.3493C7.02046 21.5524 7.29601 21.6666 7.58333 21.6666H10.8333V18.4166C10.8333 18.1293 10.9475 17.8537 11.1506 17.6506C11.3538 17.4474 11.6293 17.3333 11.9167 17.3333H14.0833C14.3706 17.3333 14.6462 17.4474 14.8494 17.6506C15.0525 17.8537 15.1667 18.1293 15.1667 18.4166V21.6666H18.4167C18.704 21.6666 18.9795 21.5524 19.1827 21.3493C19.3859 21.1461 19.5 20.8706 19.5 20.5833V11.3749" stroke="#A6A3A9" stroke-width="2" stroke-linecap="round" stroke-linejoin="round"/>
</svg>
