<svg width="20" height="20" viewBox="0 0 20 20" fill="none" xmlns="http://www.w3.org/2000/svg">
<g id="map-pin-line">
<path id="Vector" d="M10 17.4161L14.1248 13.2913C16.4028 11.0133 16.4028 7.31977 14.1248 5.04171C11.8468 2.76365 8.15327 2.76365 5.87521 5.04171C3.59715 7.31977 3.59715 11.0133 5.87521 13.2913L10 17.4161ZM10 19.7731L4.6967 14.4698C1.76777 11.5408 1.76777 6.79214 4.6967 3.8632C7.62563 0.934271 12.3743 0.934271 15.3033 3.8632C18.2323 6.79214 18.2323 11.5408 15.3033 14.4698L10 19.7731ZM10 10.8332C10.9205 10.8332 11.6667 10.087 11.6667 9.1665C11.6667 8.24603 10.9205 7.49984 10 7.49984C9.0795 7.49984 8.33333 8.24603 8.33333 9.1665C8.33333 10.087 9.0795 10.8332 10 10.8332ZM10 12.4998C8.15905 12.4998 6.66667 11.0074 6.66667 9.1665C6.66667 7.32555 8.15905 5.83317 10 5.83317C11.8409 5.83317 13.3333 7.32555 13.3333 9.1665C13.3333 11.0074 11.8409 12.4998 10 12.4998Z" fill="#2D2634"/>
</g>
</svg>
