<svg width="26" height="26" viewBox="0 0 26 26" fill="none" xmlns="http://www.w3.org/2000/svg">
<path d="M4.33334 19.4998C4.33334 18.3506 4.78989 17.2484 5.60255 16.4357C6.4152 15.623 7.51741 15.1665 8.66668 15.1665H17.3333C18.4826 15.1665 19.5848 15.623 20.3975 16.4357C21.2101 17.2484 21.6667 18.3506 21.6667 19.4998C21.6667 20.0745 21.4384 20.6256 21.0321 21.0319C20.6257 21.4382 20.0746 21.6665 19.5 21.6665H6.50001C5.92537 21.6665 5.37427 21.4382 4.96795 21.0319C4.56162 20.6256 4.33334 20.0745 4.33334 19.4998Z" stroke="#A6A3A9" stroke-width="2" stroke-linejoin="round"/>
<path d="M13 10.8333C14.7949 10.8333 16.25 9.37818 16.25 7.58325C16.25 5.78833 14.7949 4.33325 13 4.33325C11.2051 4.33325 9.75 5.78833 9.75 7.58325C9.75 9.37818 11.2051 10.8333 13 10.8333Z" stroke="#A6A3A9" stroke-width="2"/>
</svg>
