<svg width="27" height="26" viewBox="0 0 27 26" fill="none" xmlns="http://www.w3.org/2000/svg">
<g clip-path="url(#clip0_1107_1042)">
<path fill-rule="evenodd" clip-rule="evenodd" d="M11.875 2.16675C10.4066 2.16687 8.9596 2.51814 7.65461 3.19125C6.34962 3.86436 5.22452 4.83978 4.37317 6.03615C3.52183 7.23251 2.96893 8.61512 2.7606 10.0686C2.55227 11.5221 2.69456 13.0044 3.17559 14.3917C3.65662 15.779 4.46245 17.0312 5.52584 18.0438C6.58923 19.0563 7.87935 19.7999 9.28856 20.2125C10.6978 20.625 12.1852 20.6946 13.6268 20.4154C15.0683 20.1362 16.4222 19.5163 17.5755 18.6074L21.5318 22.5637C21.7362 22.7611 22.0098 22.8703 22.2939 22.8678C22.5779 22.8653 22.8496 22.7514 23.0505 22.5506C23.2513 22.3497 23.3653 22.078 23.3677 21.7939C23.3702 21.5099 23.261 21.2362 23.0637 21.0319L19.1073 17.0756C20.1777 15.7178 20.8441 14.086 21.0304 12.3671C21.2166 10.6482 20.9152 8.9116 20.1606 7.35602C19.406 5.80043 18.2286 4.48872 16.7633 3.571C15.298 2.65328 13.604 2.16663 11.875 2.16675ZM4.83333 11.3751C4.83333 9.50752 5.57522 7.71644 6.89579 6.39587C8.21636 5.0753 10.0074 4.33341 11.875 4.33341C13.7426 4.33341 15.5336 5.0753 16.8542 6.39587C18.1748 7.71644 18.9167 9.50752 18.9167 11.3751C18.9167 13.2426 18.1748 15.0337 16.8542 16.3543C15.5336 17.6749 13.7426 18.4167 11.875 18.4167C10.0074 18.4167 8.21636 17.6749 6.89579 16.3543C5.57522 15.0337 4.83333 13.2426 4.83333 11.3751Z" fill="#A6A3A9"/>
</g>
<defs>
<clipPath id="clip0_1107_1042">
<rect width="26" height="26" fill="white" transform="translate(0.5)"/>
</clipPath>
</defs>
</svg>
