<svg width="26" height="26" viewBox="0 0 26 26" fill="none" xmlns="http://www.w3.org/2000/svg">
<path d="M3.25 8.66675V20.5834C3.25 22.9678 5.1935 23.8334 6.5 23.8334H22.75V21.6667H6.513C6.0125 21.6537 5.41667 21.4566 5.41667 20.5834C5.41667 19.7102 6.0125 19.5131 6.513 19.5001H22.75V4.33341C22.75 3.1385 21.7783 2.16675 20.5833 2.16675H6.5C5.1935 2.16675 3.25 3.03233 3.25 5.41675V8.66675ZM6.5 4.33341H20.5833V17.3334H5.41667V5.41675C5.41667 4.54358 6.0125 4.34641 6.5 4.33341Z" fill="#A6A3A9"/>
<path d="M13.0024 15.1665L16.6316 11.6034C16.8553 11.3882 17.0333 11.13 17.1549 10.8444C17.2765 10.5587 17.3392 10.2515 17.3392 9.94102C17.3392 9.63057 17.2765 9.32331 17.1549 9.03766C17.0333 8.75201 16.8553 8.49385 16.6316 8.27865C16.1805 7.8334 15.5721 7.58375 14.9383 7.58375C14.3045 7.58375 13.6962 7.8334 13.2451 8.27865L13.0024 8.51481L12.7597 8.27756C12.3088 7.83238 11.7007 7.58276 11.067 7.58276C10.4334 7.58276 9.82524 7.83238 9.37432 8.27756C9.15055 8.49276 8.97254 8.75093 8.85094 9.03658C8.72935 9.32223 8.66667 9.62948 8.66667 9.93994C8.66667 10.2504 8.72935 10.5577 8.85094 10.8433C8.97254 11.1289 9.15055 11.3871 9.37432 11.6023L13.0024 15.1665Z" fill="#A6A3A9"/>
</svg>
