<svg width="20" height="20" viewBox="0 0 20 20" fill="none" xmlns="http://www.w3.org/2000/svg">
<g id="time-line">
<path id="Vector" d="M9.99935 18.3333C5.39697 18.3333 1.66602 14.6023 1.66602 9.99996C1.66602 5.39758 5.39697 1.66663 9.99935 1.66663C14.6017 1.66663 18.3327 5.39758 18.3327 9.99996C18.3327 14.6023 14.6017 18.3333 9.99935 18.3333ZM9.99935 16.6666C13.6813 16.6666 16.666 13.6819 16.666 9.99996C16.666 6.31806 13.6813 3.33329 9.99935 3.33329C6.31745 3.33329 3.33268 6.31806 3.33268 9.99996C3.33268 13.6819 6.31745 16.6666 9.99935 16.6666ZM10.8327 9.99996H14.166V11.6666H9.16602V5.83329H10.8327V9.99996Z" fill="#636366"/>
</g>
</svg>
